<?xml version="1.0" encoding="UTF-8"?>
<svg id="Layer_1" data-name="Layer 1" xmlns="http://www.w3.org/2000/svg" viewBox="0 0 1000 1000">
  <defs>
    <style>
      .cls-1 {
        fill: #33332d;
      }

      .cls-2 {
        fill: #ffeb94;
      }

      .cls-3 {
        fill: #7e7e99;
      }
    </style>
  </defs>
  <rect class="cls-2" x="500" width="500" height="1000"/>
  <rect class="cls-3" width="500" height="1000"/>
  <g>
    <path class="cls-1" d="M243.86,515.29c13.08,0,25.31,2.45,36.69,7.36,11.38,4.9,21.42,11.71,30.12,20.4,8.7,8.7,15.5,18.74,20.4,30.12s7.36,23.62,7.36,36.69-2.45,25.34-7.36,36.78c-4.9,11.44-11.71,21.51-20.4,30.21s-18.74,15.47-30.12,20.32c-11.38,4.85-23.62,7.27-36.69,7.27s-25.34-2.42-36.78-7.27c-11.44-4.84-21.51-11.62-30.21-20.32-8.7-8.7-15.47-18.77-20.32-30.21-4.85-11.44-7.27-23.7-7.27-36.78s2.42-25.31,7.27-36.69c4.84-11.38,11.62-21.42,20.32-30.12s18.77-15.5,30.21-20.4c11.44-4.9,23.7-7.36,36.78-7.36Z"/>
    <path class="cls-1" d="M748.24,515.29c13.08,0,25.31,2.45,36.69,7.36,11.38,4.9,21.42,11.71,30.12,20.4,8.7,8.7,15.5,18.74,20.4,30.12,4.9,11.38,7.36,23.62,7.36,36.69s-2.45,25.34-7.36,36.78c-4.9,11.44-11.71,21.51-20.4,30.21s-18.74,15.47-30.12,20.32c-11.38,4.85-23.62,7.27-36.69,7.27s-25.34-2.42-36.78-7.27c-11.44-4.84-21.51-11.62-30.21-20.32-8.7-8.7-15.47-18.77-20.32-30.21-4.85-11.44-7.27-23.7-7.27-36.78s2.42-25.31,7.27-36.69c4.84-11.38,11.62-21.42,20.32-30.12s18.77-15.5,30.21-20.4c11.44-4.9,23.7-7.36,36.78-7.36Z"/>
  </g>
  <path class="cls-1" d="M665.68,821.28h-331.35v-107.88h41.33v55.69h249.04v-55.69h40.98v107.88Z"/>
</svg>